<svg viewBox="-0.545 -0.545 70 70" xmlns="http://www.w3.org/2000/svg" id="Fallen-Leaf--Streamline-Emoji" height="70" width="70"><desc>Fallen Leaf Streamline Emoji: https://streamlinehq.com</desc><path d="M28.455523125 64.9765310625C28.455523125 66.718949125 42.9170044375 67.80801425 54.4861320625 66.9367334375C59.8553695625 66.53246143749999 63.16304956249999 65.785218625 63.16304956249999 64.9765310625C63.16304956249999 63.234112999999994 48.70156825 62.145047874999996 37.132440624999994 63.01618512499999C31.763203124999997 63.42060068749999 28.455523125 64.1678435 28.455523125 64.9765310625Z" fill="#3c200c" opacity=".15" stroke-width="1.09"></path><path d="M5.065746375 65.9573500625C5.065746375 67.69976812499999 13.239620875 68.78883325 19.7787491875 67.91769599999999C22.813516874999998 67.51328043749999 24.68298775 66.766037625 24.68298775 65.9573500625C24.68298775 64.21493199999999 16.5092568125 63.12586687499999 9.9701285 63.9971476875C6.935360812499999 64.4014196875 5.065746375 65.1486625 5.065746375 65.9573500625Z" fill="#3c200c" opacity=".15" stroke-width="1.09"></path><path d="M19.0996985625 50.670958625C17.7019740625 56.586164312499996 13.9598739375 61.679044 8.7327633125 64.78028112499999C8.106256562499999 65.1548356875 7.295415562499999 64.9604520625 6.906791875 64.342702625C0.0793900625 53.6612219375 3.4496633124999994 39.4488215625 14.3463441875 32.970276625000004C14.97471725 32.59959825 15.783261249999999 32.7852245625 16.187246124999998 33.3927810625C19.454585062499998 38.521407812499994 20.505319 44.75474799999999 19.0996985625 50.670958625Z" fill="#d6700e" stroke-width="1.09"></path><path d="M3.9792653749999993 51.425523125C5.6789018125 44.297357874999996 10.747663 38.445750375 17.560421437499997 35.746775375C17.1758175 34.936652187499995 16.7424023125 34.1505039375 16.26276 33.3927810625C15.858775125 32.7852245625 15.050231124999998 32.59959825 14.4217145 32.970276625000004C9.167327 36.0650534375 5.3978064375 41.1638191875 3.9792653749999993 47.09467318749999C3.403866875 49.504369749999995 3.2354680624999994 51.993456374999994 3.4813906249999995 54.45871162499999C3.5741319999999996 53.43697731249999 3.7405209375 52.42328249999999 3.9792653749999993 51.425523125Z" fill="#b15b0f" stroke-width="1.09"></path><path d="M19.0996985625 50.670958625C17.7019740625 56.586164312499996 13.9598739375 61.679044 8.7327633125 64.78028112499999C8.106256562499999 65.1548356875 7.295415562499999 64.9604520625 6.906791875 64.342702625C0.0793900625 53.6612219375 3.4496633124999994 39.4488215625 14.3463441875 32.970276625000004C14.97471725 32.59959825 15.783261249999999 32.7852245625 16.187246124999998 33.3927810625C19.454585062499998 38.521407812499994 20.505319 44.75474799999999 19.0996985625 50.670958625Z" fill="none" stroke="#3c200c" stroke-linecap="round" stroke-linejoin="round" stroke-width="1.09"></path><path d="M59.948828750000004 42.9750036875C56.613871875 37.4067885625 57.1872605 25.108219875 46.3676726875 15.8126915625C40.3394833125 10.5930461875 32.7501953125 7.520090874999999 24.788649749999998 7.075477812499999C23.856211312499997 5.773940187499999 23.231858 4.27758825 22.962821875 2.699262125C22.7479088125 1.5376979375 21.356070374999998 1.044273625 20.4575126875 1.8111845C20.040463625 2.1672195 19.844931499999998 2.7184994999999996 19.9447074375 3.25772025C20.329311375 5.3676583125 21.214230625 7.3548504375 22.5250998125 9.0523334375C18.5679430625 20.632946062499997 21.170013375 33.4477655 29.3308236875 42.567573312499995C42.021605125 57.3860945625 57.534394625 53.1307585 63.85717425 50.4597781875C64.92872474999999 50.0114325 65.11320256249999 48.5710699375 64.18909074999999 47.867183C64.1743038125 47.8558415625 64.1590861875 47.844787249999996 64.1438685625 47.834020062499995C62.4244205 46.522002375 60.995973625 44.8674445625 59.948828750000004 42.9750036875Z" fill="#d6700e" stroke-width="1.09"></path><path d="M22.1327435 10.2595505C22.646984375 11.5058165625 23.808548562499997 12.3654688125 25.1508579375 12.49280875C32.4426844375 13.3030755 39.3184668125 16.301809 44.8737613125 21.094212374999998C55.69334912499999 30.389884249999994 55.11996049999999 42.688309374999996 58.454917374999994 48.2565245C59.14172037499999 49.424836125 59.95658112499999 50.513039875 60.8844255625 51.501037000000004C62.01612875 51.138828812499995 63.02723943749999 50.761546562499994 63.902396437499995 50.4144124375C64.9740905 49.966066749999996 65.15842475 48.52584775 64.2344565 47.821960812499995C64.21952599999999 47.810619374999995 64.2044519375 47.799565062499994 64.18909074999999 47.78879787499999C62.474523812499996 46.489844375000004 61.0463640625 44.85107843749999 59.99405093749999 42.9750036875C56.6590940625 37.4067885625 57.232626249999996 25.108219875 46.412894875 15.8126915625C40.372646249999995 10.583714625 32.765987187499995 7.510328625 24.788649749999998 7.075477812499999C23.856211312499997 5.773940187499999 23.231858 4.27758825 22.962821875 2.699262125C22.7479088125 1.5376979375 21.356070374999998 1.044273625 20.4575126875 1.8111845C20.040463625 2.1672195 19.844931499999998 2.7184994999999996 19.9447074375 3.25772025C20.329311375 5.3676583125 21.2140870625 7.3548504375 22.5250998125 9.0523334375C22.3892896875 9.369175875 22.268553625 9.821828437499999 22.1327435 10.2595505Z" fill="#b15b0f" stroke-width="1.09"></path><path d="M59.948828750000004 42.9750036875C56.613871875 37.4067885625 57.1872605 25.108219875 46.3676726875 15.8126915625C40.3394833125 10.5930461875 32.7501953125 7.520090874999999 24.788649749999998 7.075477812499999C23.856211312499997 5.773940187499999 23.231858 4.27758825 22.962821875 2.699262125C22.7479088125 1.5376979375 21.356070374999998 1.044273625 20.4575126875 1.8111845C20.040463625 2.1672195 19.844931499999998 2.7184994999999996 19.9447074375 3.25772025C20.329311375 5.3676583125 21.214230625 7.3548504375 22.5250998125 9.0523334375C18.5679430625 20.632946062499997 21.170013375 33.4477655 29.3308236875 42.567573312499995C42.021605125 57.3860945625 57.534394625 53.1307585 63.85717425 50.4597781875C64.92872474999999 50.0114325 65.11320256249999 48.5710699375 64.18909074999999 47.867183C64.1743038125 47.8558415625 64.1590861875 47.844787249999996 64.1438685625 47.834020062499995C62.4244205 46.522002375 60.995973625 44.8674445625 59.948828750000004 42.9750036875Z" fill="none" stroke="#3c200c" stroke-linecap="round" stroke-linejoin="round" stroke-width="1.09"></path><path d="M17.454902999999998 30.4954026875C13.3804556875 35.022502562499994 10.966021562499998 42.9147074375 9.200489937499999 50.308893999999995" fill="none" stroke="#3c200c" stroke-linecap="round" stroke-linejoin="round" stroke-width="1.09"></path><path d="M26.750431312499998 10.53117075S34.0238818125 14.2432663125 44.858543687499996 31.6573975625C52.02647575 43.1561795625 55.42172887499999 44.483989125 55.42172887499999 44.483989125" fill="none" stroke="#3c200c" stroke-linecap="round" stroke-linejoin="round" stroke-width="1.09"></path></svg>